<svg width="24" height="24" viewBox="0 0 24 24" fill="none" xmlns="http://www.w3.org/2000/svg">
<g clip-path="url(#clip0_926_974)">
<path fill-rule="evenodd" clip-rule="evenodd" d="M21 1.5H3C2.60218 1.5 2.22064 1.65804 1.93934 1.93934C1.65804 2.22064 1.5 2.60218 1.5 3V21C1.5 21.3978 1.65804 21.7794 1.93934 22.0607C2.22064 22.342 2.60218 22.5 3 22.5H21C21.3978 22.5 21.7794 22.342 22.0607 22.0607C22.342 21.7794 22.5 21.3978 22.5 21V3C22.5 2.60218 22.342 2.22064 22.0607 1.93934C21.7794 1.65804 21.3978 1.5 21 1.5ZM3 0C2.20435 0 1.44129 0.316071 0.87868 0.87868C0.316071 1.44129 0 2.20435 0 3L0 21C0 21.7956 0.316071 22.5587 0.87868 23.1213C1.44129 23.6839 2.20435 24 3 24H21C21.7956 24 22.5587 23.6839 23.1213 23.1213C23.6839 22.5587 24 21.7956 24 21V3C24 2.20435 23.6839 1.44129 23.1213 0.87868C22.5587 0.316071 21.7956 0 21 0L3 0Z" fill="#1E88A8"/>
<path fill-rule="evenodd" clip-rule="evenodd" d="M7.75865 16.2436C7.8993 16.3842 8.09003 16.4632 8.2889 16.4632C8.48778 16.4632 8.67851 16.3842 8.81915 16.2436L14.9632 10.0996V14.2516C14.9632 14.4505 15.0422 14.6412 15.1828 14.7819C15.3235 14.9225 15.5142 15.0016 15.7132 15.0016C15.9121 15.0016 16.1028 14.9225 16.2435 14.7819C16.3841 14.6412 16.4632 14.4505 16.4632 14.2516V8.28906C16.4632 8.09015 16.3841 7.89938 16.2435 7.75873C16.1028 7.61808 15.9121 7.53906 15.7132 7.53906H9.75065C9.55174 7.53906 9.36098 7.61808 9.22032 7.75873C9.07967 7.89938 9.00065 8.09015 9.00065 8.28906C9.00065 8.48797 9.07967 8.67874 9.22032 8.81939C9.36098 8.96004 9.55174 9.03906 9.75065 9.03906H13.9027L7.75865 15.1831C7.61805 15.3237 7.53906 15.5144 7.53906 15.7133C7.53906 15.9122 7.61805 16.1029 7.75865 16.2436V16.2436Z" fill="#1E88A8"/>
</g>
<defs>
<clipPath id="clip0_926_974">
<rect width="24" height="24" fill="white"/>
</clipPath>
</defs>
</svg>
