<svg width="30" height="30" viewBox="0 0 30 30" fill="none" xmlns="http://www.w3.org/2000/svg">
<g clip-path="url(#clip0_1431_930)">
<path d="M5.74268 6.23049C5.96899 6.20419 6.19819 6.24024 6.40551 6.33476C6.61282 6.42927 6.79035 6.57865 6.91893 6.76674C8.76393 9.46549 10.9789 10.588 13.4377 10.843C13.5577 9.79174 13.8414 8.75299 14.3752 7.83799C15.1577 6.49549 16.4302 5.50799 18.2477 5.14299C20.7602 4.63799 22.6727 5.54799 23.7814 6.66174L26.0214 6.24299C26.2558 6.19907 26.4979 6.22312 26.7191 6.3123C26.9403 6.40148 27.1313 6.55207 27.2697 6.7463C27.4081 6.94053 27.488 7.17029 27.5 7.40846C27.5121 7.64664 27.4558 7.88329 27.3377 8.09049L25.1877 11.868C25.3839 17.3192 23.8689 21.1242 20.6389 23.7455C18.9264 25.1355 16.4739 25.9242 13.7827 26.168C11.0702 26.413 8.00393 26.1167 4.95643 25.2267C4.69604 25.1508 4.46743 24.9922 4.30508 24.7749C4.14274 24.5576 4.05548 24.2934 4.05647 24.0222C4.05745 23.751 4.14664 23.4874 4.31056 23.2713C4.47448 23.0552 4.70425 22.8983 4.96518 22.8242C6.49768 22.388 7.66518 22.0117 8.71893 21.353C7.22018 20.558 6.11643 19.518 5.33518 18.333C4.25018 16.6855 3.84768 14.848 3.76768 13.1917C3.68768 11.5355 3.92643 10.0005 4.17893 8.89424C4.32268 8.26299 4.49018 7.63049 4.72143 7.02549C4.803 6.81223 4.94142 6.62538 5.12168 6.48523C5.30194 6.34508 5.51589 6.25698 5.74268 6.23049Z" fill="#F5F5F5"/>
</g>
<defs>
<clipPath id="clip0_1431_930">
<rect width="30" height="30" fill="white"/>
</clipPath>
</defs>
</svg>
