<svg width="40" height="40" viewBox="0 0 40 40" fill="none" xmlns="http://www.w3.org/2000/svg">
<path d="M28.3327 30.0007C26.4827 30.0007 24.9993 31.484 24.9993 33.334C24.9993 34.218 25.3505 35.0659 25.9757 35.691C26.6008 36.3161 27.4486 36.6673 28.3327 36.6673C29.2167 36.6673 30.0646 36.3161 30.6897 35.691C31.3148 35.0659 31.666 34.218 31.666 33.334C31.666 32.4499 31.3148 31.6021 30.6897 30.977C30.0646 30.3518 29.2167 30.0007 28.3327 30.0007ZM1.66602 3.33398V6.66732H4.99935L10.9993 19.3173L8.73268 23.4007C8.48268 23.8673 8.33268 24.4173 8.33268 25.0007C8.33268 25.8847 8.68387 26.7326 9.30899 27.3577C9.93411 27.9828 10.782 28.334 11.666 28.334H31.666V25.0007H12.366C12.2555 25.0007 12.1495 24.9568 12.0714 24.8786C11.9932 24.8005 11.9493 24.6945 11.9493 24.584C11.9493 24.5007 11.966 24.434 11.9993 24.384L13.4993 21.6673H25.916C27.166 21.6673 28.266 20.9673 28.8327 19.9507L34.7993 9.16732C34.916 8.90065 34.9993 8.61732 34.9993 8.33398C34.9993 7.89196 34.8238 7.46803 34.5112 7.15547C34.1986 6.84291 33.7747 6.66732 33.3327 6.66732H8.68268L7.11602 3.33398M11.666 30.0007C9.81602 30.0007 8.33268 31.484 8.33268 33.334C8.33268 34.218 8.68387 35.0659 9.30899 35.691C9.93411 36.3161 10.782 36.6673 11.666 36.6673C12.5501 36.6673 13.3979 36.3161 14.023 35.691C14.6482 35.0659 14.9993 34.218 14.9993 33.334C14.9993 32.4499 14.6482 31.6021 14.023 30.977C13.3979 30.3518 12.5501 30.0007 11.666 30.0007Z" fill="#1E88A8"/>
</svg>
