<svg width="161" height="161" viewBox="0 0 161 161" fill="none" xmlns="http://www.w3.org/2000/svg">
<path d="M160.489 80.4023C160.489 124.585 124.672 160.402 80.4893 160.402C36.3065 160.402 0.489258 124.585 0.489258 80.4023C0.489258 36.2196 36.3065 0.402344 80.4893 0.402344C124.672 0.402344 160.489 36.2196 160.489 80.4023Z" fill="#1EA824"/>
<circle cx="81.2568" cy="80.4023" r="60" fill="white"/>
<path d="M111.015 49.3951C113.039 50.4398 114.53 52.1826 115.16 54.2403C115.79 56.298 115.508 58.502 114.375 60.3677L85.5997 107.718C84.8709 108.918 83.8601 109.952 82.6414 110.745C81.4226 111.538 80.0268 112.069 78.5561 112.301C77.0855 112.532 75.5774 112.457 74.1422 112.081C72.7071 111.706 71.3813 111.039 70.2621 110.13L48.4545 92.4286C46.7133 91.0147 45.653 89.0215 45.5067 86.8872C45.3604 84.753 46.1402 82.6526 47.6745 81.0482C49.2087 79.4437 51.3719 78.4667 53.6879 78.3319C56.004 78.1971 58.2834 78.9156 60.0245 80.3294L65.9676 85.1545C70.6732 88.9749 77.6685 87.7642 80.8163 82.5845L99.1047 52.4913C99.6661 51.5673 100.419 50.7543 101.322 50.0987C102.224 49.443 103.258 48.9576 104.364 48.6701C105.47 48.3826 106.626 48.2986 107.768 48.423C108.909 48.5474 110.012 48.8777 111.015 49.3951Z" fill="#1EA824"/>
</svg>
