<svg width="21" height="21" viewBox="0 0 21 21" fill="none" xmlns="http://www.w3.org/2000/svg">
<g clip-path="url(#clip0_926_2095)">
<path d="M20.8672 10.5313C20.8672 5.00844 16.39 0.53125 10.8672 0.53125C5.34437 0.53125 0.867188 5.00836 0.867188 10.5313C0.867188 15.5225 4.52406 19.6596 9.30469 20.4098V13.4219H6.76562V10.5313H9.30469V8.32813C9.30469 5.82188 10.7977 4.4375 13.0818 4.4375C14.1759 4.4375 15.3203 4.63281 15.3203 4.63281V7.09375H14.0594C12.817 7.09375 12.4297 7.86461 12.4297 8.65547V10.5313H15.2031L14.7598 13.4219H12.4297V20.4098C17.2103 19.6596 20.8672 15.5226 20.8672 10.5313Z" fill="#1877F2"/>
<path d="M14.7598 13.4219L15.2031 10.5312H12.4297V8.65547C12.4297 7.86453 12.8171 7.09375 14.0594 7.09375H15.3203V4.63281C15.3203 4.63281 14.1759 4.4375 13.0818 4.4375C10.7977 4.4375 9.30469 5.82188 9.30469 8.32813V10.5312H6.76562V13.4219H9.30469V20.4098C9.82158 20.4908 10.344 20.5314 10.8672 20.5312C11.3904 20.5314 11.9128 20.4908 12.4297 20.4098V13.4219H14.7598Z" fill="#F9F0E1"/>
</g>
<defs>
<clipPath id="clip0_926_2095">
<rect width="20" height="20" fill="white" transform="translate(0.867188 0.53125)"/>
</clipPath>
</defs>
</svg>
